<svg width="24" height="24" viewBox="0 0 24 24" fill="none" xmlns="http://www.w3.org/2000/svg">
<g clip-path="url(#clip0_318744_1486)">
<path d="M24 4.5585C23.1075 4.95 22.1565 5.2095 21.165 5.3355C22.185 4.7265 22.9635 3.7695 23.3295 2.616C22.3785 3.183 21.3285 3.5835 20.2095 3.807C19.3065 2.8455 18.0195 2.25 16.6155 2.25C13.8915 2.25 11.6985 4.461 11.6985 7.1715C11.6985 7.5615 11.7315 7.9365 11.8125 8.2935C7.72197 8.094 4.10247 6.1335 1.67097 3.147C1.24647 3.8835 0.99747 4.7265 0.99747 5.634C0.99747 7.338 1.87497 8.8485 3.18297 9.723C2.39247 9.708 1.61697 9.4785 0.959969 9.117C0.959969 9.132 0.959969 9.1515 0.959969 9.171C0.959969 11.562 2.66547 13.548 4.90197 14.0055C4.50147 14.115 4.06497 14.1675 3.61197 14.1675C3.29697 14.1675 2.97897 14.1495 2.68047 14.0835C3.31797 16.032 5.12697 17.4645 7.27797 17.511C5.60397 18.8205 3.47847 19.6095 1.17747 19.6095C0.77397 19.6095 0.386969 19.5915 -3.05176e-05 19.542C2.17947 20.9475 4.76247 21.75 7.54797 21.75C16.602 21.75 21.552 14.25 21.552 7.749C21.552 7.5315 21.5445 7.3215 21.534 7.113C22.5105 6.42 23.331 5.5545 24 4.5585Z" fill="#F4F4FD"/>
</g>
<defs>
<clipPath id="clip0_318744_1486">
<rect width="24" height="24" fill="white"/>
</clipPath>
</defs>
</svg>
